<mxfile host="app.diagrams.net" agent="Mozilla/5.0 (X11; Linux x86_64) AppleWebKit/537.36 (KHTML, like Gecko) Chrome/129.0.0.0 Safari/537.36 Edg/129.0.0.0" version="24.7.17">
  <diagram name="Page-1" id="b742lAm8ZpaRraasJaMS">
    <mxGraphModel dx="1249" dy="412" grid="1" gridSize="10" guides="1" tooltips="1" connect="1" arrows="1" fold="1" page="1" pageScale="1" pageWidth="827" pageHeight="1169" math="0" shadow="0">
      <root>
        <mxCell id="0" />
        <mxCell id="1" parent="0" />
        <mxCell id="D1x91cumwD77H4-Mai6n-10" style="edgeStyle=orthogonalEdgeStyle;rounded=0;orthogonalLoop=1;jettySize=auto;html=1;exitX=1;exitY=0.5;exitDx=0;exitDy=0;entryX=0;entryY=0.5;entryDx=0;entryDy=0;" edge="1" parent="1" source="D1x91cumwD77H4-Mai6n-1" target="D1x91cumwD77H4-Mai6n-9">
          <mxGeometry relative="1" as="geometry" />
        </mxCell>
        <mxCell id="D1x91cumwD77H4-Mai6n-1" value="Input&lt;div&gt;(Medium-resolution satellite images)&lt;/div&gt;" style="shape=parallelogram;perimeter=parallelogramPerimeter;whiteSpace=wrap;html=1;fixedSize=1;" vertex="1" parent="1">
          <mxGeometry x="-50" y="88" width="150" height="80" as="geometry" />
        </mxCell>
        <mxCell id="D1x91cumwD77H4-Mai6n-12" style="edgeStyle=orthogonalEdgeStyle;rounded=0;orthogonalLoop=1;jettySize=auto;html=1;exitX=1;exitY=0.5;exitDx=0;exitDy=0;entryX=0;entryY=0.5;entryDx=0;entryDy=0;" edge="1" parent="1" source="D1x91cumwD77H4-Mai6n-2" target="D1x91cumwD77H4-Mai6n-3">
          <mxGeometry relative="1" as="geometry" />
        </mxCell>
        <mxCell id="D1x91cumwD77H4-Mai6n-2" value="Feature Extraction" style="rounded=0;whiteSpace=wrap;html=1;" vertex="1" parent="1">
          <mxGeometry x="440" y="105" width="143" height="50" as="geometry" />
        </mxCell>
        <mxCell id="D1x91cumwD77H4-Mai6n-13" style="edgeStyle=orthogonalEdgeStyle;rounded=0;orthogonalLoop=1;jettySize=auto;html=1;exitX=0.5;exitY=1;exitDx=0;exitDy=0;entryX=0.5;entryY=0;entryDx=0;entryDy=0;" edge="1" parent="1" source="D1x91cumwD77H4-Mai6n-3" target="D1x91cumwD77H4-Mai6n-4">
          <mxGeometry relative="1" as="geometry" />
        </mxCell>
        <mxCell id="D1x91cumwD77H4-Mai6n-3" value="Change Detection Algorithm&lt;div&gt;(image differencing,&amp;nbsp;post-classification)&lt;/div&gt;" style="shape=process;whiteSpace=wrap;html=1;backgroundOutline=1;" vertex="1" parent="1">
          <mxGeometry x="660" y="90" width="190" height="80" as="geometry" />
        </mxCell>
        <mxCell id="D1x91cumwD77H4-Mai6n-14" style="edgeStyle=orthogonalEdgeStyle;rounded=0;orthogonalLoop=1;jettySize=auto;html=1;exitX=0;exitY=0.5;exitDx=0;exitDy=0;entryX=1;entryY=0.5;entryDx=0;entryDy=0;" edge="1" parent="1" source="D1x91cumwD77H4-Mai6n-4" target="D1x91cumwD77H4-Mai6n-5">
          <mxGeometry relative="1" as="geometry" />
        </mxCell>
        <mxCell id="D1x91cumwD77H4-Mai6n-4" value="Post-processing&amp;nbsp;&lt;div&gt;(Remove nose, false alarms)&lt;/div&gt;" style="shape=process;whiteSpace=wrap;html=1;backgroundOutline=1;" vertex="1" parent="1">
          <mxGeometry x="668.5" y="235" width="173" height="60" as="geometry" />
        </mxCell>
        <mxCell id="D1x91cumwD77H4-Mai6n-15" style="edgeStyle=orthogonalEdgeStyle;rounded=0;orthogonalLoop=1;jettySize=auto;html=1;exitX=0;exitY=0.5;exitDx=0;exitDy=0;entryX=1;entryY=0.5;entryDx=0;entryDy=0;" edge="1" parent="1" source="D1x91cumwD77H4-Mai6n-5" target="D1x91cumwD77H4-Mai6n-6">
          <mxGeometry relative="1" as="geometry" />
        </mxCell>
        <mxCell id="D1x91cumwD77H4-Mai6n-5" value="Accuracy Assessment" style="shape=process;whiteSpace=wrap;html=1;backgroundOutline=1;" vertex="1" parent="1">
          <mxGeometry x="425" y="245" width="173" height="40" as="geometry" />
        </mxCell>
        <mxCell id="D1x91cumwD77H4-Mai6n-16" style="edgeStyle=orthogonalEdgeStyle;rounded=0;orthogonalLoop=1;jettySize=auto;html=1;exitX=0;exitY=0.5;exitDx=0;exitDy=0;" edge="1" parent="1" source="D1x91cumwD77H4-Mai6n-6" target="D1x91cumwD77H4-Mai6n-7">
          <mxGeometry relative="1" as="geometry" />
        </mxCell>
        <mxCell id="D1x91cumwD77H4-Mai6n-6" value="Final Change Map" style="shape=parallelogram;perimeter=parallelogramPerimeter;whiteSpace=wrap;html=1;fixedSize=1;" vertex="1" parent="1">
          <mxGeometry x="195.5" y="240" width="150" height="50" as="geometry" />
        </mxCell>
        <mxCell id="D1x91cumwD77H4-Mai6n-7" value="Data Interpretation" style="rounded=0;whiteSpace=wrap;html=1;" vertex="1" parent="1">
          <mxGeometry x="-46.5" y="240" width="143" height="50" as="geometry" />
        </mxCell>
        <mxCell id="D1x91cumwD77H4-Mai6n-8" value="Output Results&lt;div&gt;(Maps, statistics, graphs, charts, reports)&lt;/div&gt;" style="shape=parallelogram;perimeter=parallelogramPerimeter;whiteSpace=wrap;html=1;fixedSize=1;" vertex="1" parent="1">
          <mxGeometry x="-72" y="342" width="172" height="80" as="geometry" />
        </mxCell>
        <mxCell id="D1x91cumwD77H4-Mai6n-11" style="edgeStyle=orthogonalEdgeStyle;rounded=0;orthogonalLoop=1;jettySize=auto;html=1;exitX=1;exitY=0.5;exitDx=0;exitDy=0;" edge="1" parent="1">
          <mxGeometry relative="1" as="geometry">
            <mxPoint x="368.5" y="128" as="sourcePoint" />
            <mxPoint x="440" y="129.00000000000023" as="targetPoint" />
          </mxGeometry>
        </mxCell>
        <mxCell id="D1x91cumwD77H4-Mai6n-9" value="Pre-processing" style="shape=process;whiteSpace=wrap;html=1;backgroundOutline=1;" vertex="1" parent="1">
          <mxGeometry x="195.5" y="109" width="173" height="40" as="geometry" />
        </mxCell>
        <mxCell id="D1x91cumwD77H4-Mai6n-17" style="edgeStyle=orthogonalEdgeStyle;rounded=0;orthogonalLoop=1;jettySize=auto;html=1;exitX=0.5;exitY=1;exitDx=0;exitDy=0;" edge="1" parent="1" source="D1x91cumwD77H4-Mai6n-7">
          <mxGeometry relative="1" as="geometry">
            <mxPoint x="25" y="340" as="targetPoint" />
          </mxGeometry>
        </mxCell>
      </root>
    </mxGraphModel>
  </diagram>
</mxfile>
